<svg width="17" height="11" viewBox="0 0 17 11" fill="none" xmlns="http://www.w3.org/2000/svg">
<path d="M4.82826 4.13181C4.82826 4.3376 4.85051 4.50445 4.88944 4.62681C4.93394 4.74917 4.98955 4.88265 5.06742 5.02725C5.09523 5.07175 5.10635 5.11624 5.10635 5.15517C5.10635 5.21079 5.07298 5.26641 5.00068 5.32203L4.65029 5.55562C4.60023 5.58899 4.55018 5.60567 4.50568 5.60567C4.45007 5.60567 4.39445 5.57786 4.33883 5.52781C4.26097 5.44438 4.19423 5.3554 4.13861 5.26641C4.08299 5.17186 4.02737 5.06619 3.9662 4.93827C3.53238 5.44995 2.98733 5.70578 2.33104 5.70578C1.86386 5.70578 1.49122 5.5723 1.2187 5.30534C0.946172 5.03838 0.807129 4.68243 0.807129 4.23749C0.807129 3.76474 0.973981 3.38098 1.31325 3.09177C1.65251 2.80256 2.10301 2.65795 2.67587 2.65795C2.86497 2.65795 3.05963 2.67464 3.26542 2.70245C3.4712 2.73026 3.68255 2.77475 3.90502 2.82481V2.4188C3.90502 1.99611 3.81603 1.70133 3.64361 1.52892C3.46564 1.35651 3.1653 1.27308 2.73705 1.27308C2.54239 1.27308 2.34217 1.29533 2.13638 1.34538C1.9306 1.39544 1.73038 1.45662 1.53572 1.53448C1.44673 1.57342 1.37999 1.59566 1.34106 1.60679C1.30212 1.61791 1.27431 1.62347 1.25207 1.62347C1.1742 1.62347 1.13527 1.56785 1.13527 1.45106V1.17853C1.13527 1.08954 1.14639 1.0228 1.1742 0.983871C1.20201 0.944939 1.25207 0.906007 1.32993 0.867075C1.52459 0.766963 1.75819 0.683537 2.03071 0.616796C2.30324 0.544494 2.59245 0.511123 2.89834 0.511123C3.56019 0.511123 4.04406 0.66129 4.35552 0.961624C4.66141 1.26196 4.81714 1.71802 4.81714 2.32981V4.13181H4.82826ZM2.5702 4.9772C2.75374 4.9772 2.94284 4.94383 3.14306 4.87709C3.34328 4.81035 3.52126 4.68799 3.67142 4.52114C3.76041 4.41546 3.82715 4.29867 3.86052 4.16518C3.89389 4.0317 3.91614 3.87041 3.91614 3.68131V3.44772C3.75485 3.40879 3.58243 3.37542 3.40446 3.35317C3.22648 3.33092 3.05407 3.3198 2.88166 3.3198C2.50902 3.3198 2.2365 3.3921 2.05296 3.54227C1.86942 3.69244 1.78043 3.90378 1.78043 4.18187C1.78043 4.44327 1.84717 4.63793 1.98622 4.77141C2.1197 4.91046 2.31436 4.9772 2.5702 4.9772ZM7.03627 5.57787C6.93616 5.57787 6.86942 5.56118 6.82493 5.52225C6.78043 5.48888 6.7415 5.41101 6.70813 5.30534L5.40112 1.00612C5.36775 0.894883 5.35107 0.822581 5.35107 0.783649C5.35107 0.694661 5.39556 0.644605 5.48455 0.644605H6.0296C6.13527 0.644605 6.20757 0.66129 6.24651 0.700222C6.291 0.733593 6.32437 0.811457 6.35774 0.91713L7.29211 4.599L8.15974 0.91713C8.18755 0.805895 8.22092 0.733593 8.26542 0.700222C8.30991 0.666852 8.38777 0.644605 8.48789 0.644605H8.93282C9.0385 0.644605 9.1108 0.66129 9.15529 0.700222C9.19979 0.733593 9.23872 0.811457 9.26097 0.91713L10.1397 4.64349L11.1019 0.91713C11.1353 0.805895 11.1742 0.733593 11.2131 0.700222C11.2576 0.666852 11.3299 0.644605 11.43 0.644605H11.9473C12.0363 0.644605 12.0863 0.689099 12.0863 0.783649C12.0863 0.811457 12.0808 0.839266 12.0752 0.872636C12.0696 0.906007 12.0585 0.950501 12.0363 1.01168L10.6959 5.3109C10.6625 5.42214 10.6236 5.49444 10.5791 5.52781C10.5346 5.56118 10.4623 5.58343 10.3678 5.58343H9.88944C9.78377 5.58343 9.71147 5.56674 9.66697 5.52781C9.62248 5.48888 9.58355 5.41657 9.5613 5.30534L8.69923 1.71802L7.84273 5.29978C7.81492 5.41101 7.78155 5.48332 7.73705 5.52225C7.69256 5.56118 7.61469 5.57787 7.51458 5.57787H7.03627ZM14.1831 5.72803C13.8939 5.72803 13.6047 5.69466 13.3266 5.62792C13.0485 5.56118 12.8316 5.48888 12.687 5.40545C12.598 5.3554 12.5368 5.29978 12.5146 5.24972C12.4923 5.19967 12.4812 5.14405 12.4812 5.09399V4.81035C12.4812 4.69355 12.5257 4.63793 12.6091 4.63793C12.6425 4.63793 12.6759 4.64349 12.7092 4.65462C12.7426 4.66574 12.7927 4.68799 12.8483 4.71023C13.0374 4.79366 13.2432 4.8604 13.4601 4.90489C13.6825 4.94939 13.8995 4.97164 14.1219 4.97164C14.4723 4.97164 14.7448 4.91046 14.9339 4.7881C15.123 4.66574 15.2231 4.48776 15.2231 4.25973C15.2231 4.104 15.1731 3.97608 15.073 3.87041C14.9729 3.76474 14.7838 3.67019 14.5112 3.5812L13.7048 3.33092C13.2988 3.203 12.9985 3.0139 12.8149 2.76363C12.6314 2.51891 12.5368 2.24638 12.5368 1.95717C12.5368 1.72358 12.5869 1.5178 12.687 1.33982C12.7871 1.16185 12.9206 1.00612 13.0874 0.88376C13.2543 0.75584 13.4434 0.66129 13.6659 0.59455C13.8883 0.527809 14.1219 0.5 14.3666 0.5C14.489 0.5 14.6169 0.505562 14.7393 0.522247C14.8672 0.538932 14.984 0.561179 15.1008 0.583426C15.212 0.611235 15.3177 0.639043 15.4178 0.672414C15.5179 0.705784 15.5958 0.739155 15.6514 0.772525C15.7293 0.817019 15.7849 0.861513 15.8183 0.911568C15.8516 0.956062 15.8683 1.01724 15.8683 1.09511V1.35651C15.8683 1.4733 15.8238 1.53448 15.7404 1.53448C15.6959 1.53448 15.6236 1.51224 15.529 1.46774C15.212 1.32314 14.8561 1.25083 14.4612 1.25083C14.1442 1.25083 13.8939 1.30089 13.7215 1.40656C13.5491 1.51224 13.4601 1.67353 13.4601 1.90156C13.4601 2.05729 13.5157 2.19077 13.6269 2.29644C13.7382 2.40211 13.9439 2.50779 14.2387 2.60234L15.0285 2.85261C15.4289 2.98053 15.7181 3.15851 15.8906 3.38654C16.063 3.61457 16.1464 3.87597 16.1464 4.16518C16.1464 4.40434 16.0963 4.62125 16.0018 4.81035C15.9017 4.99944 15.7682 5.1663 15.5958 5.29978C15.4234 5.43882 15.2176 5.53893 14.9784 5.61124C14.7282 5.6891 14.4668 5.72803 14.1831 5.72803Z" fill="black"/>
<path d="M15.2343 8.43111C13.4045 9.78261 10.746 10.5001 8.46011 10.5001C5.25655 10.5001 2.37001 9.31542 0.189806 7.34657C0.0173921 7.19084 0.173121 6.97949 0.378905 7.10185C2.73708 8.47004 5.64587 9.29874 8.65477 9.29874C10.6848 9.29874 12.9151 8.87604 14.9673 8.00841C15.2732 7.86937 15.5346 8.20864 15.2343 8.43111Z" fill="#FF9900"/>
<path d="M15.9963 7.56338C15.7627 7.26305 14.4501 7.41878 13.855 7.49108C13.677 7.51333 13.6492 7.3576 13.8105 7.2408C14.8561 6.50665 16.5747 6.718 16.7749 6.96272C16.9751 7.21299 16.7193 8.93157 15.7404 9.75471C15.5903 9.88263 15.4457 9.81589 15.5124 9.64903C15.7349 9.09842 16.2299 7.85815 15.9963 7.56338Z" fill="#FF9900"/>
</svg>
