<svg width="10" height="11" viewBox="0 0 10 11" fill="none" xmlns="http://www.w3.org/2000/svg">
<path d="M6.67261 3.08292L0.169437 9.53254C-0.34539 10.0711 0.426494 10.8441 0.972738 10.3323L7.47591 3.88265C7.99056 3.3423 7.21725 2.57024 6.67261 3.08292ZM4.65186 1.89225C4.68756 1.89582 5.54084 2.01542 5.54084 2.75089C5.54513 2.98492 5.89465 2.98599 5.89787 2.75089C5.89787 2.02078 6.75294 1.8976 6.78864 1.89225C6.99821 1.86547 6.98821 1.54897 6.77793 1.53701C6.19598 1.49774 5.89251 0.630174 5.88894 0.621249C5.87706 0.585919 5.85439 0.555211 5.82412 0.533457C5.79386 0.511703 5.75752 0.5 5.72025 0.5C5.68297 0.5 5.64664 0.511703 5.61637 0.533457C5.58611 0.555211 5.56344 0.585919 5.55156 0.621249C5.54799 0.630174 5.24452 1.49774 4.66257 1.53701C4.57153 1.54237 4.49834 1.61734 4.49655 1.71017C4.49298 1.80121 4.56082 1.87975 4.65186 1.89225ZM8.17032 2.40993C8.37382 2.02435 8.87187 2.19572 8.89329 2.20286C9.09161 2.27783 9.22764 1.99168 9.04681 1.88332C8.75583 1.7066 8.83438 1.14072 8.83616 1.13001C8.8683 0.968989 8.65337 0.853492 8.53805 0.972916C8.41845 1.08359 8.05429 1.346 7.79009 1.22997C7.59944 1.14339 7.44199 1.41919 7.61515 1.5388C7.633 1.55308 8.05786 1.86012 7.85435 2.24392C7.75117 2.45117 8.05429 2.61611 8.17032 2.40993ZM9.34135 4.81984C9.11821 4.56635 9.36456 4.04688 9.36813 4.03974C9.44525 3.89301 9.27584 3.7211 9.12892 3.79875C8.98433 3.87016 8.5559 4.01296 8.33812 3.82553C8.30493 3.7963 8.26205 3.78047 8.21783 3.78113C8.1736 3.78179 8.13121 3.79889 8.09891 3.8291C8.03286 3.89336 8.02394 3.99511 8.07928 4.0683C8.09356 4.08615 8.40595 4.50387 8.09713 4.81091C7.93058 4.97336 8.18192 5.22952 8.34704 5.0644C8.65944 4.75557 9.08251 5.06618 9.10036 5.08046C9.26763 5.20685 9.48291 4.97835 9.34135 4.81984Z" fill="black"/>
</svg>
