<svg width="22" height="20" viewBox="0 0 22 20" fill="none" xmlns="http://www.w3.org/2000/svg">
<path d="M11 0.664795C16.1623 0.664795 20.339 4.84157 20.339 9.99604C20.339 15.1505 16.1623 19.3351 11 19.3351C5.83766 19.3351 1.66089 15.1583 1.66089 10.0039C1.66089 4.84939 5.83766 0.664795 11 0.664795Z" fill="#E74D89"/>
<path d="M11 20C5.47792 20 0.988281 15.5182 0.988281 10.0039C0.988281 4.48182 5.47792 0 11 0C16.5221 0 21.0117 4.48182 21.0117 9.99609C21.0117 15.5104 16.5221 20 11 20ZM19.4396 11.3649C19.1502 11.271 16.7959 10.5749 14.113 10.9973C15.2315 14.0634 15.6852 16.5663 15.7712 17.0825C17.6954 15.7919 19.0642 13.7427 19.4396 11.3649ZM14.3399 17.8725C14.2147 17.1216 13.7141 14.5092 12.5174 11.3962C12.5018 11.404 12.4783 11.4118 12.4627 11.4118C7.6367 13.0935 5.90811 16.4333 5.75168 16.7462C7.19868 17.8725 9.02113 18.5452 11 18.5452C12.1811 18.553 13.3152 18.3105 14.3399 17.8725ZM4.64882 15.7215C4.84436 15.393 7.19086 11.5135 11.6023 10.0821C11.7118 10.043 11.8291 10.0117 11.9386 9.98045C11.7274 9.4955 11.4928 9.01056 11.2425 8.53344C6.97186 9.80837 2.82637 9.75362 2.45093 9.7458C2.45093 9.83183 2.44311 9.91787 2.44311 10.0039C2.45093 12.2018 3.28003 14.2041 4.64882 15.7215ZM2.63083 8.25968C3.01409 8.2675 6.53384 8.28314 10.5385 7.2194C9.12281 4.70082 7.58977 2.58897 7.37076 2.28393C4.96951 3.41025 3.18617 5.61596 2.63083 8.25968ZM8.99767 1.70512C9.23232 2.01799 10.7888 4.12984 12.1889 6.70317C15.2315 5.5612 16.5143 3.84044 16.6707 3.62143C15.1611 2.28393 13.1744 1.47047 11 1.47047C10.3117 1.47047 9.63904 1.55651 8.99767 1.70512ZM17.6171 4.60696C17.4372 4.84943 16.0059 6.68752 12.8459 7.9781C13.0415 8.38483 13.237 8.79937 13.4169 9.21392C13.4795 9.36253 13.5421 9.51115 13.6046 9.65194C16.4517 9.29214 19.2753 9.87094 19.5569 9.92569C19.5335 7.91553 18.8139 6.06179 17.6171 4.60696Z" fill="#B2215A"/>
</svg>
