<svg width="22" height="20" viewBox="0 0 22 20" fill="none" xmlns="http://www.w3.org/2000/svg">
<path d="M11.0001 0C5.23492 0 0.56543 4.59124 0.56543 10.2538C0.56543 14.785 3.55495 18.6275 7.7001 19.9823C8.22184 20.0788 8.41314 19.7614 8.41314 19.4893C8.41314 19.2458 8.40444 18.6006 8.40009 17.7458C5.49753 18.3641 4.88536 16.3702 4.88536 16.3702C4.41059 15.1867 3.72451 14.8702 3.72451 14.8702C2.77931 14.2346 3.79755 14.2476 3.79755 14.2476C4.84537 14.3189 5.39579 15.3041 5.39579 15.3041C6.32621 16.8719 7.83836 16.4189 8.43488 16.1572C8.52879 15.4937 8.79748 15.0424 9.09574 14.7859C6.77838 14.5293 4.34276 13.6476 4.34276 9.71899C4.34276 8.59987 4.74711 7.6851 5.41666 6.96772C5.29927 6.7086 4.9471 5.666 5.50796 4.25385C5.50796 4.25385 6.38186 3.97907 8.37749 5.30514C9.21226 5.07732 10.0992 4.96427 10.9861 4.95906C11.8731 4.96427 12.76 5.07732 13.5948 5.30514C15.5774 3.97907 16.4513 4.25385 16.4513 4.25385C17.0121 5.666 16.66 6.7086 16.5556 6.96772C17.2208 7.6851 17.6252 8.59987 17.6252 9.71899C17.6252 13.6581 15.1861 14.525 12.8644 14.7772C13.2296 15.085 13.5687 15.7137 13.5687 16.6745C13.5687 18.0467 13.5557 19.1493 13.5557 19.4823C13.5557 19.751 13.7383 20.0719 14.273 19.9693C18.4478 18.6232 21.4347 14.778 21.4347 10.2538C21.4347 4.59124 16.7626 0 11.0001 0Z" fill="#E6E6E6"/>
</svg>
