<svg width="30" height="20" viewBox="0 0 30 20" fill="none" xmlns="http://www.w3.org/2000/svg">
<path d="M22.6577 1.69557C19.6536 1.71002 17.3704 3.69679 16.5156 6.86285C15.0815 4.65581 13.9626 2.13128 13.3211 0L10.1594 0.0148889L10.2032 8.39552C10.2051 8.79007 10.1292 9.18113 9.97995 9.54636C9.83069 9.91159 9.61095 10.2438 9.33329 10.5242C9.05562 10.8045 8.72545 11.0274 8.36165 11.1801C7.99785 11.3328 7.60753 11.4123 7.21298 11.4142C6.41614 11.418 5.65044 11.1051 5.08433 10.5443C4.80402 10.2666 4.58114 9.93646 4.42842 9.57266C4.27571 9.20885 4.19615 8.81853 4.19428 8.42398L4.15049 0.0433526L0.987061 0.0586792L1.03085 8.43974C1.04311 11.9176 3.82206 14.6733 7.22283 14.6558C10.6236 14.6383 13.3776 11.8593 13.3623 8.38063L13.3557 6.95744C13.9933 8.2186 14.7903 9.55859 15.6661 10.7409L13.7327 20L16.9732 19.9851L18.3658 13.258C19.6339 14.0432 21.0589 14.5104 22.7185 14.5025C26.1973 14.4872 29.0305 11.6286 29.013 7.99089C28.9972 4.5113 26.1368 1.67937 22.6581 1.69513L22.6577 1.69557ZM22.7028 11.262C21.4381 11.2677 20.1708 10.7208 19.1391 9.85505L19.4491 8.58513V8.50543C19.6804 7.15931 20.3801 4.86381 22.7518 4.8533C23.5899 4.85177 24.3945 5.18195 24.9899 5.77172C25.5854 6.36149 25.9232 7.16292 25.9297 8.00096C25.8583 9.81958 24.3633 11.2502 22.7023 11.2577L22.7028 11.262Z" fill="#6FDA44"/>
</svg>
