<svg width="8" height="11" viewBox="0 0 8 11" fill="none" xmlns="http://www.w3.org/2000/svg">
<path d="M3.74104 5.5001C3.74868 4.57966 4.50105 3.83969 5.42149 3.84734C6.34192 3.85499 7.08189 4.60737 7.07424 5.52779C7.0666 6.44825 6.31421 7.18819 5.3938 7.18055C4.47334 7.1729 3.73339 6.42054 3.74104 5.5001Z" fill="#00BCFF"/>
<path d="M0.380209 8.80568C0.387855 7.88524 1.14022 7.14527 2.06066 7.15292L2.95271 6.69139L3.72726 7.16677L3.71341 8.83337C3.70577 9.75382 2.9534 10.4938 2.03297 10.4861C1.11253 10.4785 0.372562 9.72611 0.380209 8.80568Z" fill="#00CF7F"/>
<path d="M3.78262 0.500332L2.86264 2.06833L3.75493 3.83354L5.39815 3.84719C6.31861 3.85483 7.07095 3.11487 7.0786 2.19443C7.08624 1.27399 6.34628 0.521629 5.42584 0.513983L3.78262 0.500332Z" fill="#FF7361"/>
<path d="M0.41218 2.13901C0.404534 3.05945 1.1445 3.81182 2.06494 3.81946L2.94619 4.16828L3.75492 3.8335L3.78261 0.500297L2.09261 0.486257C1.17219 0.478611 0.419827 1.21858 0.41218 2.13901Z" fill="#FF4D12"/>
<path d="M0.40803 5.47241C0.400383 6.39287 1.14035 7.14521 2.06079 7.15286L3.72739 7.1667L3.75508 3.83348L2.08848 3.81963C1.16804 3.81198 0.415676 4.55197 0.40803 5.47241Z" fill="#B659FF"/>
</svg>
