<svg width="20" height="15" viewBox="0 0 20 15" fill="none" xmlns="http://www.w3.org/2000/svg">
<path d="M16.9097 0H2.50356C2.22815 0 2.00488 0.22323 2.00488 0.498673V10.9228H17.4084V0.498673C17.4084 0.22323 17.1852 0 16.9097 0Z" fill="#D9D9D9"/>
<path d="M2.83911 0.8349H16.5748V10.0898H2.83911V0.8349Z" fill="#D9D9D9"/>
<path d="M2.83864 10.0889V0.833984L16.5743 10.0889H2.83864ZM19.4129 14.4134H0L2.00468 10.9228H17.4082L19.4129 14.4134Z" fill="#6C6C6C"/>
<path d="M7.31599 14.1456L7.97904 13.0585H11.4339L12.0969 14.1456H7.31599ZM0 14.4133C0 14.7373 0.262607 14.9999 0.586669 14.9999H18.8263C19.1502 14.9999 19.4129 14.7373 19.4129 14.4133H0Z" fill="#D9D9D9"/>
<path d="M3.63162 11.5718H2.55488L2.65252 11.3874H3.71452L3.63162 11.5718ZM5.10121 11.5718H4.02448L4.10197 11.3874H5.16401L5.10121 11.5718ZM6.57077 11.5718H5.49404L5.55154 11.3874H6.61354L6.57077 11.5718ZM8.04037 11.5718H6.96363L7.00108 11.3874H8.06308L8.04037 11.5718ZM9.50992 11.5718H8.43319L8.45061 11.3874H9.51257L9.50992 11.5718ZM10.9795 11.5718H9.90279L9.9001 11.3874H10.9621L10.9795 11.5718ZM12.4491 11.5718H11.3723L11.3496 11.3874H12.4117L12.4491 11.5718ZM13.9186 11.5718H12.8419L12.7992 11.3874H13.8612L13.9186 11.5718ZM15.3882 11.5718H14.3115L14.2487 11.3874H15.3107L15.3882 11.5718ZM16.8578 11.5718H15.7811L15.6982 11.3874H16.7602L16.8578 11.5718ZM3.752 11.304H2.69663L2.74383 11.2148H3.79213L3.752 11.304ZM5.19249 11.304H4.13708L4.1746 11.2148H5.22286L5.19249 11.304ZM6.6329 11.304H5.57753L5.60534 11.2148H6.65363L6.6329 11.304ZM8.07338 11.304H7.01798L7.03611 11.2148H8.08436L8.07338 11.304ZM9.51383 11.304H8.45843L8.46684 11.2148H9.51514L9.51383 11.304ZM10.9543 11.304H9.89888L9.89757 11.2148H10.9459L10.9543 11.304ZM12.3947 11.304H11.3393L11.3283 11.2148H12.3766L12.3947 11.304ZM13.8352 11.304H12.7798L12.7591 11.2148H13.8074L13.8352 11.304ZM15.2756 11.304H14.2203L14.1898 11.2148H15.2381L15.2756 11.304ZM16.7161 11.304H15.6607L15.6206 11.2148H16.6689L16.7161 11.304ZM3.50286 11.8582H2.4033L2.50508 11.6659H3.58928L3.50286 11.8582ZM5.00358 11.8582H3.90406L3.98487 11.6659H5.0691L5.00358 11.8582ZM6.50434 11.8582H5.40478L5.46469 11.6659H6.54897L6.50434 11.8582ZM8.00506 11.8582H6.9055L6.94452 11.6659H8.02871L8.00506 11.8582ZM9.50578 11.8582H8.40621L8.42434 11.6659H9.50858L9.50578 11.8582ZM11.0065 11.8582H9.90697L9.90417 11.6659H10.9884L11.0065 11.8582ZM12.5072 11.8582H11.4077L11.384 11.6659H12.4682L12.5072 11.8582ZM14.0079 11.8582H12.9084L12.8638 11.6659H13.948L14.0079 11.8582ZM15.5087 11.8582H14.4091L14.3436 11.6659H15.4278L15.5087 11.8582ZM17.0094 11.8582H15.9098L15.8234 11.6659H16.9077L17.0094 11.8582ZM3.36854 12.157H2.2452L2.35136 11.9564H3.4587L3.36854 12.157ZM4.90176 12.157H3.77846L3.86275 11.9564H4.97013L4.90176 12.157ZM6.43494 12.157H5.31161L5.37421 11.9564H6.48151L6.43494 12.157ZM7.96821 12.157H6.84487L6.88555 11.9564H7.99293L7.96821 12.157ZM9.50143 12.157H8.37809L8.39697 11.9564H9.50431L9.50143 12.157ZM11.0347 12.157H9.91132L9.90835 11.9564H11.0157L11.0347 12.157ZM12.5679 12.157H11.4445L11.4198 11.9564H12.5271L12.5679 12.157ZM14.1011 12.157H12.9777L12.9312 11.9564H14.0385L14.1011 12.157ZM15.6343 12.157H14.5109L14.4426 11.9564H15.5499L15.6343 12.157ZM17.1675 12.157H16.0441L15.954 11.9564H17.0613L17.1675 12.157ZM3.22833 12.469H2.08011L2.19097 12.2595H3.32248L3.22833 12.469ZM4.7954 12.469H3.64722L3.73533 12.2595H4.86681L4.7954 12.469ZM6.36259 12.469H5.21441L5.27969 12.2595H6.41121L6.36259 12.469ZM7.92974 12.469H6.78156L6.82406 12.2595H7.95557L7.92974 12.469ZM9.49689 12.469H8.34867L8.36842 12.2595H9.49993L9.49689 12.469ZM11.064 12.469H9.91582L9.91278 12.2595H11.0443L11.064 12.469ZM14.1983 12.469H13.0501L13.0015 12.2595H14.133L14.1983 12.469ZM17.3326 12.469H16.1844L16.0902 12.2595H17.2217L17.3326 12.469ZM3.08168 12.7951H1.90747L2.02339 12.5761H3.18018L3.08168 12.7951ZM9.49215 12.7951H3.51009L3.60219 12.5761H9.49531L9.49215 12.7951ZM11.0947 12.7951H9.9206L9.91736 12.5761H11.0741L11.0947 12.7951ZM12.6973 12.7951H11.5232L11.4962 12.5761H12.6529L12.6973 12.7951ZM14.3 12.7951H13.1258L13.075 12.5761H14.2318L14.3 12.7951ZM15.9026 12.7951H14.7284L14.6538 12.5761H15.8105L15.9026 12.7951ZM17.5052 12.7951H16.331L16.2326 12.5761H17.3893L17.5052 12.7951Z" fill="#101010"/>
</svg>
