<svg width="14" height="21" viewBox="0 0 14 21" fill="none" xmlns="http://www.w3.org/2000/svg">
<path d="M6.66656 20.166C6.31294 20.166 5.97381 20.0255 5.72377 19.7755C5.47373 19.5255 5.33325 19.1863 5.33325 18.8327L6.66656 18.4994L7.99987 18.8327C7.99987 19.1863 7.85939 19.5255 7.60935 19.7755C7.3593 20.0255 7.02017 20.166 6.66656 20.166Z" fill="#7A8D9C"/>
<path d="M12.9993 7.09658C13.0103 8.00661 12.8246 8.90829 12.4549 9.7399C12.0852 10.5715 11.5402 11.3134 10.8572 11.9149C10.5865 12.1556 10.3701 12.4511 10.2223 12.7817C10.0745 13.1123 9.99863 13.4706 9.99972 13.8328L6.66645 14.1661L3.33318 13.8328C3.33466 13.4713 3.25927 13.1136 3.11202 12.7834C2.96476 12.4532 2.749 12.1581 2.47903 11.9176C1.68723 11.2198 1.08237 10.3352 0.71945 9.34408C0.356528 8.35301 0.247045 7.28695 0.400952 6.2428C0.554859 5.19865 0.967276 4.20952 1.60072 3.36532C2.23416 2.52111 3.06854 1.84859 4.02802 1.4089C4.9875 0.969198 6.04166 0.776263 7.09467 0.847624C8.14769 0.918986 9.16617 1.25238 10.0576 1.81751C10.9489 2.38264 11.685 3.16158 12.1987 4.08353C12.7125 5.00548 12.9877 6.04121 12.9993 7.09658Z" fill="#FEC94D"/>
<path d="M9.99978 15.8328V17.4995C9.99978 17.8531 9.85931 18.1922 9.60927 18.4423C9.35922 18.6923 9.02009 18.8328 8.66648 18.8328H4.66656C4.31294 18.8328 3.97381 18.6923 3.72377 18.4423C3.47373 18.1922 3.33325 17.8531 3.33325 17.4995V15.8328L6.66652 15.4995L9.99978 15.8328Z" fill="#CCDDE7"/>
<path d="M10.3332 13.8329H2.99998C2.44771 13.8329 2 14.2806 2 14.8329C2 15.3851 2.44771 15.8328 2.99998 15.8328H10.3332C10.8854 15.8328 11.3331 15.3851 11.3331 14.8329C11.3331 14.2806 10.8854 13.8329 10.3332 13.8329Z" fill="#ABBAC3"/>
<path d="M10.3581 13.5001C10.4332 12.9841 10.6881 12.5112 11.0779 12.1648C12.0931 11.2687 12.8114 10.0848 13.1372 8.77049C13.463 7.45618 13.3809 6.07382 12.9017 4.80735C12.4225 3.54089 11.569 2.45037 10.4548 1.68092C9.34054 0.911462 8.01842 0.499553 6.66433 0.5C5.31024 0.500448 3.98839 0.913232 2.87468 1.68342C1.76096 2.45362 0.908191 3.5447 0.429838 4.81148C-0.0485145 6.07826 -0.129766 7.46067 0.196895 8.77477C0.523557 10.0889 1.24264 11.2723 2.25846 12.1677C2.64721 12.5133 2.90109 12.9853 2.97512 13.5001C2.62616 13.5102 2.29507 13.6567 2.05298 13.9082C1.81088 14.1598 1.67709 14.4962 1.68034 14.8453C1.68359 15.1944 1.82363 15.5283 2.07037 15.7752C2.31711 16.0222 2.65087 16.1625 2.99995 16.1661V17.4994C3.00044 17.9413 3.1762 18.3649 3.48864 18.6774C3.80109 18.9898 4.22472 19.1656 4.66658 19.166H5.03345C5.11015 19.5426 5.31461 19.881 5.61221 20.1241C5.90982 20.3672 6.28228 20.5 6.66654 20.5C7.05081 20.5 7.42327 20.3672 7.72087 20.1241C8.01847 19.881 8.22293 19.5426 8.29963 19.166H8.6665C9.10837 19.1656 9.53199 18.9898 9.84444 18.6774C10.1569 18.3649 10.3326 17.9413 10.3331 17.4994V16.1661C10.6822 16.1626 11.016 16.0223 11.2628 15.7753C11.5095 15.5283 11.6496 15.1945 11.6529 14.8454C11.6561 14.4963 11.5224 14.1598 11.2803 13.9083C11.0382 13.6568 10.7071 13.5102 10.3581 13.5001ZM2.69941 11.6677C1.78515 10.8619 1.13795 9.79677 0.84394 8.61408C0.549927 7.43139 0.623039 6.1872 1.05355 5.04709C1.48406 3.90697 2.25155 2.92499 3.2539 2.2318C4.25625 1.53862 5.44592 1.16711 6.66461 1.16671C7.8833 1.1663 9.07322 1.53703 10.076 2.22955C11.0788 2.92207 11.847 3.90355 12.2782 5.04338C12.7095 6.18321 12.7834 7.42734 12.4902 8.61023C12.197 9.79311 11.5505 10.8587 10.6368 11.6651C10.1038 12.1379 9.76487 12.7914 9.68544 13.4995H3.64773C3.56933 12.7925 3.23142 12.1398 2.69941 11.6677ZM6.66654 19.8327C6.4598 19.8325 6.2582 19.7683 6.08939 19.6489C5.92058 19.5295 5.79284 19.3609 5.72369 19.166H7.6094C7.54024 19.3609 7.4125 19.5295 7.24369 19.6489C7.07488 19.7683 6.87328 19.8325 6.66654 19.8327ZM9.66648 17.4994C9.66617 17.7645 9.56072 18.0187 9.37325 18.2062C9.18579 18.3936 8.93162 18.4991 8.6665 18.4994H4.66658C4.40147 18.4991 4.1473 18.3936 3.95983 18.2062C3.77236 18.0187 3.66691 17.7645 3.6666 17.4994V16.1661H9.66648V17.4994ZM10.3331 15.4995H2.99995C2.82314 15.4995 2.65358 15.4292 2.52855 15.3042C2.40353 15.1792 2.3333 15.0096 2.3333 14.8328C2.3333 14.656 2.40353 14.4864 2.52855 14.3614C2.65358 14.2364 2.82314 14.1661 2.99995 14.1661H10.3331C10.5099 14.1661 10.6795 14.2364 10.8045 14.3614C10.9296 14.4864 10.9998 14.656 10.9998 14.8328C10.9998 15.0096 10.9296 15.1792 10.8045 15.3042C10.6795 15.4292 10.5099 15.4995 10.3331 15.4995Z" fill="black"/>
</svg>
