<svg width="15" height="15" viewBox="0 0 15 15" fill="none" xmlns="http://www.w3.org/2000/svg">
<path d="M0.623626 4.4743e-06C0.541421 0.000314099 0.460081 0.0168126 0.384252 0.0485577C0.308422 0.0803027 0.239588 0.126672 0.181679 0.18502C0.123771 0.243367 0.0779214 0.31255 0.0467495 0.388617C0.0155777 0.464683 -0.000306321 0.546145 4.47416e-06 0.628351V14.3764C0.000626715 14.5416 0.0665295 14.6998 0.183347 14.8167C0.300164 14.9335 0.458423 14.9994 0.623626 15H14.3764C14.5416 14.9994 14.6998 14.9335 14.8167 14.8167C14.9335 14.6998 14.9994 14.5416 15 14.3764V6.87402C14.9988 6.70923 14.9326 6.55157 14.8158 6.43526C14.6991 6.31895 14.5412 6.25338 14.3764 6.25276C14.2108 6.25213 14.0516 6.31716 13.9339 6.4336C13.8161 6.55004 13.7493 6.70841 13.748 6.87402V13.748H1.25197V1.25197H8.12599C8.29078 1.25073 8.44843 1.18455 8.56474 1.0678C8.68105 0.951053 8.74663 0.793147 8.74725 0.628351C8.74788 0.462736 8.68285 0.303621 8.56641 0.185851C8.44996 0.0680803 8.2916 0.00125321 8.12599 4.4743e-06H0.623626ZM10.6276 4.4743e-06C10.545 -0.000307828 10.4631 0.0157316 10.3867 0.0471984C10.3104 0.0786651 10.241 0.124937 10.1826 0.183346C10.1241 0.241756 10.0779 0.311149 10.0464 0.387524C10.0149 0.463899 9.9989 0.545748 9.99921 0.628351C9.99952 0.710556 10.016 0.791896 10.0478 0.867725C10.0795 0.943555 10.1259 1.01239 10.1842 1.0703C10.2426 1.12821 10.3118 1.17406 10.3878 1.20523C10.4639 1.2364 10.5454 1.25228 10.6276 1.25197H12.8669L8.30787 5.81103C8.19103 5.92835 8.12543 6.08718 8.12543 6.25276C8.12543 6.41834 8.19103 6.57717 8.30787 6.69449C8.42519 6.81133 8.58403 6.87693 8.74961 6.87693C8.91518 6.87693 9.07402 6.81133 9.19134 6.69449L13.7504 2.13307V4.37481C13.7504 4.54083 13.8163 4.70005 13.9337 4.81744C14.0511 4.93484 14.2104 5.00079 14.3764 5.00079C14.542 5.00016 14.7006 4.93394 14.8175 4.81661C14.9344 4.69928 15 4.54042 15 4.37481V0.628351C15.0003 0.546145 14.9844 0.464683 14.9533 0.388617C14.9221 0.31255 14.8762 0.243367 14.8183 0.18502C14.7604 0.126672 14.6916 0.0803027 14.6158 0.0485577C14.5399 0.0168126 14.4586 0.000314099 14.3764 4.4743e-06H10.6276Z" fill="url(#paint0_linear_132_81)"/>
<defs>
<linearGradient id="paint0_linear_132_81" x1="8.9406e-08" y1="15" x2="15" y2="8.04662e-07" gradientUnits="userSpaceOnUse">
<stop stop-color="#5EEFE4"/>
<stop offset="0.5" stop-color="#FF4754"/>
<stop offset="1" stop-color="#FF9A19"/>
</linearGradient>
</defs>
</svg>
