<svg width="78" height="77" viewBox="0 0 78 77" fill="none" xmlns="http://www.w3.org/2000/svg">
<g filter="url(#filter0_b_113_484)">
<path d="M19.8727 19.1274L23.2536 18.8095L24.2675 15.5686L27.6406 15.9605L29.3062 13.0013L32.5241 14.0859L34.7685 11.5376L37.6906 13.2676L40.4158 11.2417L42.9143 13.5414L46.0012 12.1263L47.9669 14.8953L51.2806 14.1529L52.6277 17.27L56.0233 17.2328L56.6929 20.562L60.022 21.2315L59.9848 24.6271L63.102 25.9742L62.3596 29.2879L65.1285 31.2537L63.7134 34.3405L66.0132 36.8391L63.9872 39.5643L65.7172 42.4863L63.1689 44.7308L64.2536 47.9487L61.2943 49.6142L61.6863 52.9873L58.4454 54.0012L58.1274 57.3821L54.7466 57.7L53.7327 60.9409L50.3596 60.549L48.694 63.5083L45.4761 62.4236L43.2317 64.9719L40.3096 63.2419L37.5844 65.2679L35.0859 62.9681L31.999 64.3832L30.0332 61.6143L26.7196 62.3566L25.3724 59.2395L21.9769 59.2767L21.3073 55.9476L17.9781 55.278L18.0154 51.8824L14.8982 50.5353L15.6406 47.2216L12.8716 45.2559L14.2867 42.169L11.987 39.6705L14.013 36.9452L12.2829 34.0232L14.8313 31.7787L13.7466 28.5608L16.7058 26.8953L16.3139 23.5222L19.5548 22.5083L19.8727 19.1274Z" fill="#101010"/>
<path d="M23.3004 19.3073L23.6315 19.2761L23.7308 18.9588L24.6211 16.113L27.5829 16.4572L27.9132 16.4956L28.0763 16.2058L29.5388 13.6073L32.3644 14.5597L32.6795 14.666L32.8993 14.4164L34.8701 12.1788L37.4358 13.6979L37.722 13.8673L37.9889 13.6689L40.3818 11.89L42.5757 13.9093L42.8204 14.1345L43.1227 13.9959L45.8332 12.7534L47.5592 15.1847L47.7518 15.4559L48.0763 15.3832L50.9859 14.7313L52.1687 17.4684L52.3007 17.7737L52.6332 17.77L55.6148 17.7373L56.2027 20.6605L56.2683 20.9866L56.5943 21.0521L59.5175 21.6401L59.4848 24.6216L59.4812 24.9542L59.7864 25.0861L62.5235 26.269L61.8717 29.1786L61.799 29.5031L62.0701 29.6956L64.5015 31.4217L63.2589 34.1322L63.1203 34.4345L63.3455 34.6792L65.3649 36.873L63.5859 39.266L63.3875 39.5329L63.5569 39.819L65.076 42.3848L62.8384 44.3556L62.5889 44.5754L62.6951 44.8905L63.6475 47.716L61.0491 49.1785L60.7593 49.3416L60.7977 49.672L61.1418 52.6338L58.2961 53.524L57.9787 53.6233L57.9476 53.9544L57.6684 56.9231L54.6997 57.2022L54.3687 57.2334L54.2694 57.5508L53.3791 60.3965L50.4173 60.0523L50.0869 60.014L49.9238 60.3038L48.4614 62.9022L45.6358 61.9498L45.3207 61.8436L45.1009 62.0931L43.1301 64.3307L40.5643 62.8116L40.2782 62.6422L40.0113 62.8406L37.6184 64.6196L35.4245 62.6002L35.1798 62.375L34.8775 62.5136L32.167 63.7562L30.4409 61.3248L30.2484 61.0536L29.9239 61.1264L27.0143 61.7782L25.8314 59.0411L25.6995 58.7359L25.367 58.7395L22.3854 58.7722L21.7975 55.849L21.7319 55.523L21.4059 55.4574L18.4827 54.8694L18.5153 51.8879L18.519 51.5553L18.2137 51.4234L15.4766 50.2406L16.1285 47.3309L16.2012 47.0064L15.93 46.8139L13.4987 45.0878L14.7412 42.3773L14.8798 42.075L14.6546 41.8304L12.6353 39.6365L14.4142 37.2435L14.6126 36.9767L14.4432 36.6905L12.9241 34.1247L15.1617 32.154L15.4113 31.9342L15.3051 31.619L14.3526 28.7935L16.9511 27.331L17.2409 27.1679L17.2025 26.8376L16.8583 23.8757L19.7041 22.9855L20.0215 22.8862L20.0526 22.5551L20.3318 19.5864L23.3004 19.3073Z" stroke="url(#paint0_linear_113_484)"/>
</g>
<path d="M44 40.5001L43.125 39.6251L39.625 43.1251V33.0001H38.375V43.1251L34.875 39.6251L34 40.5001L39 45.5001L44 40.5001Z" fill="white"/>
<defs>
<filter id="filter0_b_113_484" x="-38.0129" y="-38.7584" width="154.026" height="154.026" filterUnits="userSpaceOnUse" color-interpolation-filters="sRGB">
<feFlood flood-opacity="0" result="BackgroundImageFix"/>
<feGaussianBlur in="BackgroundImageFix" stdDeviation="25"/>
<feComposite in2="SourceAlpha" operator="in" result="effect1_backgroundBlur_113_484"/>
<feBlend mode="normal" in="SourceGraphic" in2="effect1_backgroundBlur_113_484" result="shape"/>
</filter>
<linearGradient id="paint0_linear_113_484" x1="19.8727" y1="19.1274" x2="58.1274" y2="57.3821" gradientUnits="userSpaceOnUse">
<stop stop-color="#5EEFE4"/>
<stop offset="0.52" stop-color="#FF4754"/>
<stop offset="1" stop-color="#FF9A19"/>
</linearGradient>
</defs>
</svg>
