<svg width="56" height="55" viewBox="0 0 56 55" fill="none" xmlns="http://www.w3.org/2000/svg">
<g filter="url(#filter0_b_113_484)">
<path d="M27.9999 0L30.5842 2.46176L33.6239 0.59111L35.64 3.53639L39.0022 2.33861L40.3618 5.63868L43.8996 5.16612L44.5434 8.67677L48.1021 8.95007L48.0019 12.5179L51.426 13.5251L50.5862 16.9941L53.7261 18.6912L52.1835 21.9098L54.9019 24.2227L52.7237 27.0502L54.9019 29.8777L52.1835 32.1905L53.7261 35.4091L50.5862 37.1063L51.426 40.5753L48.0019 41.5825L48.1021 45.1503L44.5434 45.4236L43.8996 48.9342L40.3618 48.4617L39.0022 51.7617L35.64 50.564L33.6239 53.5092L30.5842 51.6386L27.9999 54.1003L25.4155 51.6386L22.3758 53.5092L20.3598 50.564L16.9976 51.7617L15.6379 48.4617L12.1002 48.9342L11.4564 45.4236L7.89768 45.1503L7.99786 41.5825L4.57374 40.5753L5.41351 37.1063L2.27364 35.4091L3.8163 32.1905L1.09789 29.8777L3.27602 27.0502L1.09789 24.2227L3.8163 21.9098L2.27364 18.6912L5.41351 16.9941L4.57374 13.5251L7.99786 12.5179L7.89768 8.95007L11.4564 8.67677L12.1002 5.16612L15.6379 5.63868L16.9976 2.33861L20.3598 3.53639L22.3758 0.59111L25.4155 2.46176L27.9999 0Z" fill="#101010"/>
<path d="M30.2394 2.82379L30.5183 3.08945L30.8463 2.88758L33.4804 1.26656L35.2274 3.81881L35.4449 4.13665L35.8078 4.00739L38.7213 2.96945L39.8995 5.82915L40.0462 6.18528L40.428 6.13428L43.4937 5.72478L44.0516 8.76695L44.121 9.1458L44.5051 9.1753L47.5889 9.41214L47.5021 12.5038L47.4913 12.8888L47.8608 12.9975L50.828 13.8704L50.1003 16.8764L50.0097 17.2508L50.3485 17.4339L53.0694 18.9046L51.7326 21.6937L51.5661 22.041L51.8595 22.2906L54.2151 24.2948L52.3276 26.745L52.0926 27.0502L52.3276 27.3553L54.2151 29.8055L51.8595 31.8097L51.5661 32.0593L51.7326 32.4067L53.0694 35.1957L50.3485 36.6664L50.0097 36.8496L50.1003 37.2239L50.828 40.23L47.8608 41.1028L47.4913 41.2115L47.5021 41.5965L47.5889 44.6882L44.5051 44.925L44.121 44.9545L44.0516 45.3334L43.4937 48.3756L40.428 47.9661L40.0462 47.9151L39.8995 48.2712L38.7213 51.1309L35.8078 50.093L35.4449 49.9637L35.2274 50.2815L33.4804 52.8338L30.8463 51.2128L30.5183 51.0109L30.2394 51.2766L27.9999 53.4098L25.7604 51.2766L25.4815 51.0109L25.1535 51.2128L22.5194 52.8338L20.7724 50.2815L20.5548 49.9637L20.192 50.093L17.2785 51.1309L16.1003 48.2712L15.9535 47.9151L15.5717 47.9661L12.5061 48.3756L11.9482 45.3334L11.8787 44.9545L11.4947 44.925L8.41085 44.6882L8.49766 41.5965L8.50847 41.2115L8.13896 41.1028L5.17177 40.23L5.89947 37.2239L5.9901 36.8496L5.65126 36.6664L2.93038 35.1957L4.26718 32.4067L4.43366 32.0593L4.1403 31.8097L1.78465 29.8055L3.67212 27.3553L3.90717 27.0502L3.67212 26.745L1.78465 24.2948L4.1403 22.2906L4.43366 22.041L4.26718 21.6937L2.93038 18.9046L5.65126 17.4339L5.9901 17.2508L5.89947 16.8764L5.17177 13.8704L8.13896 12.9975L8.50847 12.8888L8.49766 12.5038L8.41085 9.41213L11.4947 9.1753L11.8787 9.1458L11.9482 8.76695L12.5061 5.72478L15.5717 6.13428L15.9535 6.18528L16.1003 5.82915L17.2785 2.96945L20.192 4.00739L20.5548 4.13665L20.7724 3.81881L22.5194 1.26656L25.1535 2.88758L25.4815 3.08945L25.7604 2.82379L27.9999 0.690539L30.2394 2.82379Z" stroke="url(#paint0_linear_113_484)"/>
</g>
<path d="M33 28.5L32.125 27.625L28.625 31.125V21H27.375V31.125L23.875 27.625L23 28.5L28 33.5L33 28.5Z" fill="white"/>
<defs>
<filter id="filter0_b_113_484" x="-48.9021" y="-50" width="153.804" height="154.1" filterUnits="userSpaceOnUse" color-interpolation-filters="sRGB">
<feFlood flood-opacity="0" result="BackgroundImageFix"/>
<feGaussianBlur in="BackgroundImageFix" stdDeviation="25"/>
<feComposite in2="SourceAlpha" operator="in" result="effect1_backgroundBlur_113_484"/>
<feBlend mode="normal" in="SourceGraphic" in2="effect1_backgroundBlur_113_484" result="shape"/>
</filter>
<linearGradient id="paint0_linear_113_484" x1="9.5" y1="44" x2="47.5" y2="8.5" gradientUnits="userSpaceOnUse">
<stop stop-color="#5EEFE4"/>
<stop offset="0.52" stop-color="#FF4754"/>
<stop offset="1" stop-color="#FF9A19"/>
</linearGradient>
</defs>
</svg>
